<?xml version="1.0" encoding="iso-8859-1"?>
<!-- Generator: Adobe Illustrator 22.1.0, SVG Export Plug-In . SVG Version: 6.00 Build 0)  -->
<svg xmlns="http://www.w3.org/2000/svg" xmlns:xlink="http://www.w3.org/1999/xlink" version="1.1" id="Layer_1_1_" x="0px" y="0px" viewBox="0 0 64 64" style="enable-background:new 0 0 64 64;" xml:space="preserve" width="512" height="512">
<linearGradient id="SVGID_1_" gradientUnits="userSpaceOnUse" x1="32" y1="63" x2="32" y2="1">
	<stop offset="0" style="stop-color:#9F2FFF"/>
	<stop offset="1" style="stop-color:#0BB1D3"/>
</linearGradient>
<path style="fill:url(#SVGID_1_);" d="M7,47h6v13c0,1.654,1.346,3,3,3h44c1.654,0,3-1.346,3-3V42c0-1.654-1.346-3-3-3H47v-6h8  c1.654,0,3-1.346,3-3v-4c0-1.654-1.346-3-3-3h-8V9.586L38.414,1H7v8h2V3h28v8h8v20h-8c-1.654,0-3,1.346-3,3v3h-2  c-1.654,0-3,1.346-3,3v1H16c-1.654,0-3,1.346-3,3v1H9V23h14V7h-6v14h-2V11H9v10H7v-6H1v8h6V47z M39,4.414L43.586,9H39V4.414z M47,25  h8c0.551,0,1,0.449,1,1v4c0,0.551-0.449,1-1,1h-8V25z M36,34c0-0.551,0.449-1,1-1h8v6.069c-0.375,0.077-0.735,0.219-1.059,0.435  L41.697,41H41v-1c0-1.654-1.346-3-3-3h-2V34z M31,40c0-0.551,0.449-1,1-1h6c0.551,0,1,0.449,1,1v1h-8V40z M15,44  c0-0.551,0.449-1,1-1h26.303l2.749-1.832C45.216,41.058,45.407,41,45.605,41H60c0.551,0,1,0.449,1,1v18c0,0.551-0.449,1-1,1H16  c-0.551,0-1-0.449-1-1V44z M19,9h2v12h-2V9z M11,13h2v8h-2V13z M5,21H3v-4h2V21z M43,45H17v14h26V45z M41,49h-4v-2h4V49z M25,51h4v2  h-4V51z M23,53h-4v-2h4V53z M29,49h-4v-2h4V49z M31,47h4v2h-4V47z M35,55v2H25v-2H35z M31,53v-2h4v2H31z M37,51h4v2h-4V51z M23,47v2  h-4v-2H23z M19,55h4v2h-4V55z M37,57v-2h4v2H37z M59,45H45v14h14V45z M57,49h-2v-2h2V49z M51,53v-2h2v2H51z M53,55v2h-2v-2H53z   M49,53h-2v-2h2V53z M51,49v-2h2v2H51z M55,51h2v2h-2V51z M49,47v2h-2v-2H49z M47,55h2v2h-2V55z M55,57v-2h2v2H55z M29,28  c-0.958,0-1.804,0.46-2.353,1.162l-3.653-1.218C22.964,26.316,21.635,25,20,25c-1.654,0-3,1.346-3,3  c0,0.614,0.187,1.185,0.505,1.661l-2.617,3.489C14.606,33.061,14.311,33,14,33c-1.654,0-3,1.346-3,3s1.346,3,3,3s3-1.346,3-3  c0-0.614-0.187-1.185-0.505-1.661l2.617-3.489C19.395,30.939,19.689,31,20,31c0.958,0,1.804-0.46,2.353-1.162l3.653,1.218  C26.036,32.684,27.365,34,29,34c1.654,0,3-1.346,3-3c0-0.356-0.073-0.693-0.187-1.009l6.641-5.433C38.907,24.833,39.432,25,40,25  c1.654,0,3-1.346,3-3s-1.346-3-3-3s-3,1.346-3,3c0,0.356,0.073,0.692,0.187,1.009l-6.641,5.433C30.093,28.167,29.568,28,29,28z   M14,37c-0.551,0-1-0.449-1-1s0.449-1,1-1s1,0.449,1,1S14.551,37,14,37z M20,29c-0.551,0-1-0.449-1-1s0.449-1,1-1s1,0.449,1,1  S20.551,29,20,29z M29,32c-0.551,0-1-0.449-1-1s0.449-1,1-1s1,0.449,1,1S29.551,32,29,32z M40,21c0.551,0,1,0.449,1,1s-0.449,1-1,1  s-1-0.449-1-1S39.449,21,40,21z"/>
</svg>
