<?xml version="1.0" encoding="iso-8859-1"?>
<!-- Generator: Adobe Illustrator 22.1.0, SVG Export Plug-In . SVG Version: 6.00 Build 0)  -->
<svg xmlns="http://www.w3.org/2000/svg" xmlns:xlink="http://www.w3.org/1999/xlink" version="1.1" id="Layer_1_1_" x="0px" y="0px" viewBox="0 0 64 64" style="enable-background:new 0 0 64 64;" xml:space="preserve" width="512" height="512">
<linearGradient id="SVGID_1_" gradientUnits="userSpaceOnUse" x1="32" y1="63" x2="32" y2="1">
	<stop offset="0" style="stop-color:#9F2FFF"/>
	<stop offset="1" style="stop-color:#0BB1D3"/>
</linearGradient>
<path style="fill:url(#SVGID_1_);" d="M24.05,9.05l-1.414-1.414c3.509-3.51,9.219-3.51,12.728,0L33.95,9.05  C31.22,6.321,26.78,6.321,24.05,9.05z M11,19c0,2.206,1.794,4,4,4v-2c-1.103,0-2-0.897-2-2s0.897-2,2-2v-2  C12.794,15,11,16.794,11,19z M32,31c-2.757,0-5-2.243-5-5s2.243-5,5-5s5,2.243,5,5S34.757,31,32,31z M35,26c0-1.654-1.346-3-3-3  s-3,1.346-3,3s1.346,3,3,3S35,27.654,35,26z M37,45H27v2h10V45z M37,49H27v2h10V49z M37,53H27v2h10V53z M37,57H27v2h10V57z   M47,40.926l16,1.144V58c0,1.654-1.346,3-3,3s-3-1.346-3-3s1.346-3,3-3c0.352,0,0.686,0.072,1,0.184v-7.254l-12-0.857V60  c0,1.654-1.346,3-3,3s-3-1.346-3-3s1.346-3,3-3c0.352,0,0.686,0.072,1,0.184V53h-6v10H23V53h-4c0,1.103-0.897,2-2,2v2  c1.103,0,2,0.897,2,2v2c0,1.103-0.897,2-2,2H3c-1.103,0-2-0.897-2-2v-2c0-1.103,0.897-2,2-2v-2c-1.103,0-2-0.897-2-2v-2  c0-1.103,0.897-2,2-2v-2c-1.103,0-2-0.897-2-2v-2c0-1.103,0.897-2,2-2h14c1.103,0,2,0.897,2,2v2c0,1.103-0.897,2-2,2v2  c1.103,0,2,0.897,2,2h4V41h8v-4h-1.721l-0.819-2.455l-2.314,1.157l-3.848-3.848l1.158-2.315L21,28.721V27h-6c-4.411,0-8-3.589-8-8  s3.589-8,8-8c0.448,0,0.896,0.038,1.337,0.113C17.665,5.276,22.927,1,29,1c4.205,0,8.083,2.001,10.529,5.394  C40.327,6.132,41.155,6,42,6c3.262,0,6.21,2.026,7.417,5.011C53.635,11.229,57,14.729,57,19c0,4.411-3.589,8-8,8h-6v1.721  l-2.456,0.818l1.158,2.315l-3.848,3.848l-2.314-1.157L34.721,37H33v4h8v10h6V40.926z M21,25v-1.721l2.456-0.818l-1.158-2.315  l3.848-3.848l2.314,1.157L29.279,15h5.441l0.819,2.455l2.314-1.157l3.848,3.848l-1.158,2.315L43,23.279V25h6c3.309,0,6-2.691,6-6  s-2.691-6-6-6l-1.028,0.045l-0.221-0.747C47.003,9.768,44.638,8,42,8c-0.844,0-1.667,0.177-2.445,0.525l-0.792,0.354L38.3,8.146  C36.268,4.924,32.791,3,29,3c-5.45,0-10.127,4.071-10.88,9.47l-0.164,1.175l-1.13-0.359C16.232,13.096,15.618,13,15,13  c-3.309,0-6,2.691-6,6s2.691,6,6,6H21z M30.721,35h2.559l0.765-2.294l0.441-0.169c0.128-0.05,0.255-0.1,0.379-0.155l0.433-0.194  l2.162,1.081l1.809-1.809l-1.081-2.162l0.194-0.433c0.055-0.123,0.105-0.248,0.153-0.375l0.168-0.445L41,27.279v-2.559l-2.298-0.766  l-0.168-0.445c-0.048-0.127-0.098-0.252-0.153-0.375l-0.194-0.433l1.081-2.162l-1.809-1.809l-2.162,1.081l-0.433-0.194  c-0.125-0.056-0.251-0.105-0.379-0.155l-0.441-0.169L33.279,17h-2.559l-0.765,2.294l-0.441,0.169c-0.128,0.05-0.255,0.1-0.379,0.155  l-0.433,0.194l-2.162-1.081l-1.809,1.809l1.081,2.162l-0.194,0.433c-0.055,0.123-0.105,0.248-0.153,0.375l-0.168,0.445L23,24.721  v2.559l2.298,0.766l0.168,0.445c0.048,0.127,0.098,0.252,0.153,0.375l0.194,0.433l-1.081,2.162l1.809,1.809l2.162-1.081l0.433,0.194  c0.125,0.056,0.251,0.105,0.379,0.155l0.441,0.169L30.721,35z M3,45h14.001L17,43H3V45z M5,49h10v-2H5V49z M17,59H3v2h14.001L17,59z   M15,55H5v2h10V55z M17.001,53L17,51H3v2H17.001z M39,43H25v18h14V43z M47,60c0-0.552-0.449-1-1-1s-1,0.448-1,1s0.449,1,1,1  S47,60.552,47,60z M61,58c0-0.552-0.449-1-1-1s-1,0.448-1,1s0.449,1,1,1S61,58.552,61,58z M49,43.074v1.995l12,0.857v-1.996  L49,43.074z"/>
</svg>
