<?xml version="1.0" encoding="iso-8859-1"?>
<!-- Generator: Adobe Illustrator 19.0.0, SVG Export Plug-In . SVG Version: 6.00 Build 0)  -->
<svg version="1.1" id="Capa_1" xmlns="http://www.w3.org/2000/svg" xmlns:xlink="http://www.w3.org/1999/xlink" x="0px" y="0px"
	 viewBox="0 0 512.002 512.002" style="enable-background:new 0 0 512.002 512.002;" xml:space="preserve">
<path style="fill:#4398D1;" d="M202.152,97.369c-11.599,0.627-23.111,2.436-34.348,5.385v-0.079
	c-53.963,14.018-98.136,52.683-119.172,104.316l-0.115,0.265c-1.836,4.52-3.531,9.119-4.961,13.815
	c-4.467,14.195-7.089,28.902-7.812,43.758H35.31L0,379.587h35.31v79.448c0,29.255,23.711,52.966,52.966,52.966l0,0h256v-15.245
	c0.803-54.802,11.776-108.977,32.344-159.779c35.01-90.959-10.346-193.086-101.305-228.096
	C252.019,99.912,227.081,95.992,202.152,97.369z"/>
<path style="fill:#3E8FC9;" d="M306.873,124.85C270.892,371.139,159.7,471.244,82.088,511.613c2.057,0.247,4.122,0.38,6.188,0.388
	h256v-15.245c0.803-54.802,11.776-108.977,32.344-159.779c30.173-78.31,1.006-167.027-69.738-212.162L306.873,124.85z"/>
<path style="fill:#FDB62F;" d="M302.724,6.242L129.827,179.139c-3.999,3.999-6.241,9.419-6.241,15.069l0,0
	c0,5.65,2.242,11.07,6.241,15.069l172.897,172.897c3.999,3.999,9.419,6.241,15.069,6.241l0,0c5.65,0,11.07-2.242,15.069-6.241
	l172.897-172.897c3.999-3.999,6.241-9.419,6.241-15.069l0,0c0-5.65-2.242-11.07-6.241-15.069L332.862,6.242
	c-3.999-3.999-9.419-6.241-15.069-6.241l0,0C312.143,0.001,306.723,2.243,302.724,6.242z"/>
<path style="fill:#FFA719;" d="M505.759,179.139L401.655,75.036c-34.595,119.508-119.278,192.212-176.719,229.35l77.789,77.789
	c3.999,3.999,9.419,6.241,15.069,6.241l0,0c5.65,0,11.07-2.242,15.069-6.241l172.897-172.897
	C514.083,200.952,514.083,187.464,505.759,179.139L505.759,179.139z"/>
<g>
	<path style="fill:#266599;" d="M114.759,335.449c-19.5,0-35.31-15.81-35.31-35.31c0-19.5,15.81-35.31,35.31-35.31
		s35.31,15.81,35.31,35.31C150.069,319.639,134.259,335.449,114.759,335.449z M114.759,282.484c-9.754,0-17.655,7.901-17.655,17.655
		s7.901,17.655,17.655,17.655s17.655-7.901,17.655-17.655S124.513,282.484,114.759,282.484z"/>
	<rect x="35.31" y="406.07" style="fill:#266599;" width="44.138" height="17.655"/>
	<path style="fill:#266599;" d="M432.552,158.898l-44.138-44.138v28.142c-28.857,4.882-54.413,21.469-70.621,45.842
		c-16.207-24.373-41.763-40.96-70.621-45.842V114.76l-44.138,44.138l44.138,44.138v-24.161
		c31.135,8.068,52.904,36.131,52.966,68.299v52.966h35.31v-52.966c0.062-32.168,21.831-60.231,52.966-68.299v24.161L432.552,158.898
		z"/>
</g>
<g>
	<rect x="308.966" y="35.311" style="fill:#F0E4D6;" width="17.655" height="17.655"/>
	<rect x="308.966" y="335.449" style="fill:#F0E4D6;" width="17.655" height="17.655"/>
</g>
<path style="fill:#266599;" d="M207.395,512.001c12.694-7.945,21.707-20.612,25.07-35.204l15.36-70.55l-17.249-3.761l-15.342,70.444
	c-4.025,17.735-19.827,30.305-38.012,30.243H155.48v8.828H207.395z"/>
<g>
</g>
<g>
</g>
<g>
</g>
<g>
</g>
<g>
</g>
<g>
</g>
<g>
</g>
<g>
</g>
<g>
</g>
<g>
</g>
<g>
</g>
<g>
</g>
<g>
</g>
<g>
</g>
<g>
</g>
</svg>
